<?xml version="1.0" encoding="utf-8"?>
<!-- Generator: Adobe Illustrator 26.0.1, SVG Export Plug-In . SVG Version: 6.00 Build 0)  -->
<svg version="1.1" id="Layer_1" xmlns="http://www.w3.org/2000/svg" xmlns:xlink="http://www.w3.org/1999/xlink" x="0px" y="0px"
	 viewBox="0 0 48 48" style="enable-background:new 0 0 48 48;" xml:space="preserve">
<style type="text/css">
	.st0{fill:#FFFFFF;}
</style>
<path class="st0" d="M15.9,35.5H32v-3H15.9V35.5z M15.9,27H32v-3H15.9V27z M11,44c-0.8,0-1.5-0.3-2.1-0.9C8.3,42.5,8,41.8,8,41V7
	c0-0.8,0.3-1.5,0.9-2.1C9.5,4.3,10.2,4,11,4h18.1l10.9,11v26c0,0.8-0.3,1.5-0.9,2.1C38.5,43.7,37.8,44,37,44H11z M27.6,16.3V7H11v34
	h26V16.3H27.6z M11,7v9.3V7v34V7z"/>
</svg>
